<svg width="97" height="59" viewBox="0 0 97 59" fill="none" xmlns="http://www.w3.org/2000/svg">
    <path d="M96.5 29.5C81 31.5 69.5 65.5 31 57.5C76.5 48.5 68.5 22 89 15.5L96.5 29.5Z" fill="white"/>
    <path d="M60 47.5C57.1667 49.6667 46.5 53.9 36.5 57.5C47 58.5 55.5 55.9 63.5 51.5L60 47.5Z" fill="#A6C7FF"/>
    <path d="M35 58C51.0163 58 64 45.0163 64 29C64 12.9837 51.0163 0 35 0C32.7653 0 30.5896 0.252768 28.5 0.731272L47.5 9L58 22.5L56.5 37L47 51.5L28.5 57.2687C30.5896 57.7472 32.7653 58 35 58Z" fill="#3073E4"/>
    <path d="M32 58C48.0163 58 61 45.0163 61 29C61 12.9837 48.0163 0 32 0C29.9429 0 27.9359 0.214175 26 0.621441L43.5 6.5L51.5 14L55 23L54.5 37.5L48.5 48L43.5 52.5L28 55.5L24.5 57.0208C26.8923 57.6595 29.4064 58 32 58Z" fill="white"/>
    <path d="M84.5 35L79 25.5C81 23 85.3 18 89.8 17L95.7 28C93.2 28 90.5 29.8 84.5 35Z" fill="#A6C7FF"/>
    <path d="M65 50.5L61.5 46.5C63.5 45.1667 67 42 69 39L73 45C71.3333 46.3333 67.4 49.3 65 50.5Z" fill="#A6C7FF"/>
    <path d="M83 36C81.5 37 78.0983 40.8 74.4983 44L70.0547 37.5815C72 35 74.5 31 78 27L83 36Z" fill="#A6C7FF"/>
    <path fill-rule="evenodd" clip-rule="evenodd" d="M29 58C45.0163 58 58 45.0163 58 29C58 12.9837 45.0163 0 29 0C12.9837 0 0 12.9837 0 29C0 45.0163 12.9837 58 29 58ZM29 20C33.4183 20 37 16.4183 37 12C37 7.58172 33.4183 4 29 4C24.5817 4 21 7.58172 21 12C21 16.4183 24.5817 20 29 20ZM53 24C53 28.4183 49.4183 32 45 32C40.5817 32 37 28.4183 37 24C37 19.5817 40.5817 16 45 16C49.4183 16 53 19.5817 53 24ZM13 32C17.4183 32 21 28.4183 21 24C21 19.5817 17.4183 16 13 16C8.58172 16 5 19.5817 5 24C5 28.4183 8.58172 32 13 32ZM27 43C27 47.4183 23.4183 51 19 51C14.5817 51 11 47.4183 11 43C11 38.5817 14.5817 35 19 35C23.4183 35 27 38.5817 27 43ZM40 51C44.4183 51 48 47.4183 48 43C48 38.5817 44.4183 35 40 35C35.5817 35 32 38.5817 32 43C32 47.4183 35.5817 51 40 51Z" fill="#79ABFF"/>
    <path d="M5 24C5 28.4183 8.58172 32 13 32C5.25204 26 7.85234 17.8778 13.0039 16C8.58563 16 5 19.5817 5 24Z" fill="#3073E4"/>
    <path d="M21 12C21 16.4183 24.5817 20 29 20C21.252 14 23.8523 5.87782 29.0039 4C24.5856 4 21 7.58172 21 12Z" fill="#3073E4"/>
    <path d="M37 24C37 28.4183 40.5817 32 45 32C37.252 26 39.8523 17.8778 45.0039 16C40.5856 16 37 19.5817 37 24Z" fill="#3073E4"/>
    <path d="M11 43C11 47.4183 14.5817 51 19 51C11.252 45 13.8523 36.8778 19.0039 35C14.5856 35 11 38.5817 11 43Z" fill="#3073E4"/>
    <path d="M32 43C32 47.4183 35.5817 51 40 51C32.252 45 34.8523 36.8778 40.0039 35C35.5856 35 32 38.5817 32 43Z" fill="#3073E4"/>
</svg>
